G04 ---------------------------- Layer name :TOP LAYER*
G04 EasyEDA v5.8.22, Mon, 21 Jan 2019 15:39:03 GMT*
G04 4b6db297a765461eafb414891a714d4d*
G04 Gerber Generator version 0.2*
G04 Scale: 100 percent, Rotated: No, Reflected: No *
G04 Dimensions in inches *
G04 leading zeros omitted , absolute positions ,2 integer and 4 decimal *
%FSLAX24Y24*%
%MOIN*%
G90*
G70D02*

%ADD10C,0.010000*%
%ADD11C,0.024400*%
%ADD12R,0.087500X0.018500*%
%ADD13R,0.045670X0.057870*%
%ADD14C,0.078740*%
%ADD15C,0.062000*%
%ADD16R,0.062000X0.062000*%

%LPD*%
G54D10*
G01X5609Y2725D02*
G01X7425Y2725D01*
G01X8000Y3300D01*
G01X3189Y2725D02*
G01X1274Y2725D01*
G01X800Y3200D01*
G01X5609Y3475D02*
G01X4175Y3475D01*
G01X4000Y3300D01*
G01X4000Y2500D01*
G01X3400Y1900D01*
G01X5609Y3225D02*
G01X4525Y3225D01*
G01X4400Y3100D01*
G01X4400Y1900D01*
G01X5609Y2975D02*
G01X4975Y2975D01*
G01X4800Y2800D01*
G01X4800Y2500D01*
G01X5400Y1900D01*
G01X6200Y2725D02*
G01X6200Y1500D01*
G01X5500Y800D01*
G01X4900Y800D01*
G01X2615Y2725D02*
G01X2615Y1484D01*
G01X3300Y800D01*
G01X4100Y800D01*
G01X3189Y2975D02*
G01X2224Y2975D01*
G01X1800Y3400D01*
G01X3189Y3225D02*
G01X2574Y3225D01*
G01X2300Y3500D01*
G54D12*
G01X3189Y3475D03*
G01X3189Y3225D03*
G01X3189Y2975D03*
G01X3189Y2725D03*
G01X5609Y3475D03*
G01X5609Y3225D03*
G01X5609Y2975D03*
G01X5609Y2725D03*
G54D13*
G01X4900Y800D03*
G01X4100Y800D03*
G54D14*
G01X8000Y3300D03*
G01X800Y3200D03*
G01X800Y800D03*
G01X8000Y800D03*
G54D15*
G01X3400Y1900D03*
G01X4400Y1900D03*
G54D16*
G01X5400Y1900D03*
G54D11*
G01X1800Y3400D03*
G01X2300Y3500D03*
M00*
M02*
