G04 ---------------------------- Layer name :BOTTOM SILK LAYER*
G04 EasyEDA v5.8.22, Mon, 21 Jan 2019 15:39:03 GMT*
G04 4b6db297a765461eafb414891a714d4d*
G04 Gerber Generator version 0.2*
G04 Scale: 100 percent, Rotated: No, Reflected: No *
G04 Dimensions in inches *
G04 leading zeros omitted , absolute positions ,2 integer and 4 decimal *
%FSLAX24Y24*%
%MOIN*%
G90*
G70D02*

%ADD20C,0.008000*%
%ADD21C,0.007000*%
%ADD22C,0.007992*%

%LPD*%
G54D20*
G01X5150Y2400D02*
G01X5900Y2400D01*
G01X5900Y1400D01*
G01X2900Y1400D01*
G01X2900Y2400D01*
G54D22*
G01X2900Y2400D02*
G01X5150Y2400D01*
G54D20*
G01X8515Y2599D02*
G01X8515Y2313D01*
G01X8515Y2599D02*
G01X8392Y2599D01*
G01X8351Y2586D01*
G01X8338Y2572D01*
G01X8324Y2545D01*
G01X8324Y2518D01*
G01X8338Y2490D01*
G01X8351Y2477D01*
G01X8392Y2463D01*
G01X8515Y2463D02*
G01X8392Y2463D01*
G01X8351Y2449D01*
G01X8338Y2436D01*
G01X8324Y2409D01*
G01X8324Y2368D01*
G01X8338Y2340D01*
G01X8351Y2327D01*
G01X8392Y2313D01*
G01X8515Y2313D01*
G01X8125Y2599D02*
G01X8234Y2313D01*
G01X8125Y2599D02*
G01X8016Y2313D01*
G01X8193Y2409D02*
G01X8057Y2409D01*
G01X7830Y2599D02*
G01X7830Y2313D01*
G01X7926Y2599D02*
G01X7735Y2599D01*
G01X7522Y2559D02*
G01X7522Y2313D01*
G01X7645Y2436D02*
G01X7400Y2436D01*
G01X1215Y2499D02*
G01X1215Y2213D01*
G01X1215Y2499D02*
G01X1092Y2499D01*
G01X1051Y2486D01*
G01X1038Y2472D01*
G01X1024Y2445D01*
G01X1024Y2418D01*
G01X1038Y2390D01*
G01X1051Y2377D01*
G01X1092Y2363D01*
G01X1215Y2363D02*
G01X1092Y2363D01*
G01X1051Y2349D01*
G01X1038Y2336D01*
G01X1024Y2309D01*
G01X1024Y2268D01*
G01X1038Y2240D01*
G01X1051Y2227D01*
G01X1092Y2213D01*
G01X1215Y2213D01*
G01X825Y2499D02*
G01X934Y2213D01*
G01X825Y2499D02*
G01X716Y2213D01*
G01X893Y2309D02*
G01X757Y2309D01*
G01X530Y2499D02*
G01X530Y2213D01*
G01X626Y2499D02*
G01X435Y2499D01*
G01X345Y2336D02*
G01X100Y2336D01*
G01X1754Y1699D02*
G01X1754Y1413D01*
G01X1754Y1699D02*
G01X1645Y1413D01*
G01X1536Y1699D02*
G01X1645Y1413D01*
G01X1536Y1699D02*
G01X1536Y1413D01*
G01X1364Y1699D02*
G01X1391Y1686D01*
G01X1419Y1659D01*
G01X1432Y1631D01*
G01X1446Y1590D01*
G01X1446Y1522D01*
G01X1432Y1481D01*
G01X1419Y1454D01*
G01X1391Y1427D01*
G01X1364Y1413D01*
G01X1309Y1413D01*
G01X1282Y1427D01*
G01X1255Y1454D01*
G01X1241Y1481D01*
G01X1228Y1522D01*
G01X1228Y1590D01*
G01X1241Y1631D01*
G01X1255Y1659D01*
G01X1282Y1686D01*
G01X1309Y1699D01*
G01X1364Y1699D01*
G01X1042Y1699D02*
G01X1042Y1413D01*
G01X1138Y1699D02*
G01X947Y1699D01*
G01X775Y1699D02*
G01X802Y1686D01*
G01X830Y1659D01*
G01X843Y1631D01*
G01X857Y1590D01*
G01X857Y1522D01*
G01X843Y1481D01*
G01X830Y1454D01*
G01X802Y1427D01*
G01X775Y1413D01*
G01X720Y1413D01*
G01X693Y1427D01*
G01X666Y1454D01*
G01X652Y1481D01*
G01X639Y1522D01*
G01X639Y1590D01*
G01X652Y1631D01*
G01X666Y1659D01*
G01X693Y1686D01*
G01X720Y1699D01*
G01X775Y1699D01*
G01X549Y1699D02*
G01X549Y1413D01*
G01X549Y1699D02*
G01X426Y1699D01*
G01X385Y1686D01*
G01X371Y1672D01*
G01X358Y1645D01*
G01X358Y1618D01*
G01X371Y1590D01*
G01X385Y1577D01*
G01X426Y1563D01*
G01X549Y1563D01*
G01X453Y1563D02*
G01X358Y1413D01*
G01X268Y1645D02*
G01X240Y1659D01*
G01X200Y1699D01*
G01X200Y1413D01*
G01X8477Y1700D02*
G01X8477Y1413D01*
G01X8477Y1700D02*
G01X8368Y1413D01*
G01X8259Y1700D02*
G01X8368Y1413D01*
G01X8259Y1700D02*
G01X8259Y1413D01*
G01X8087Y1700D02*
G01X8114Y1686D01*
G01X8141Y1659D01*
G01X8155Y1631D01*
G01X8169Y1590D01*
G01X8169Y1522D01*
G01X8155Y1481D01*
G01X8141Y1454D01*
G01X8114Y1427D01*
G01X8087Y1413D01*
G01X8032Y1413D01*
G01X8005Y1427D01*
G01X7978Y1454D01*
G01X7964Y1481D01*
G01X7950Y1522D01*
G01X7950Y1590D01*
G01X7964Y1631D01*
G01X7978Y1659D01*
G01X8005Y1686D01*
G01X8032Y1700D01*
G01X8087Y1700D01*
G01X7765Y1700D02*
G01X7765Y1413D01*
G01X7860Y1700D02*
G01X7669Y1700D01*
G01X7498Y1700D02*
G01X7525Y1686D01*
G01X7552Y1659D01*
G01X7566Y1631D01*
G01X7580Y1590D01*
G01X7580Y1522D01*
G01X7566Y1481D01*
G01X7552Y1454D01*
G01X7525Y1427D01*
G01X7498Y1413D01*
G01X7443Y1413D01*
G01X7416Y1427D01*
G01X7389Y1454D01*
G01X7375Y1481D01*
G01X7361Y1522D01*
G01X7361Y1590D01*
G01X7375Y1631D01*
G01X7389Y1659D01*
G01X7416Y1686D01*
G01X7443Y1700D01*
G01X7498Y1700D01*
G01X7271Y1700D02*
G01X7271Y1413D01*
G01X7271Y1700D02*
G01X7149Y1700D01*
G01X7108Y1686D01*
G01X7094Y1672D01*
G01X7080Y1645D01*
G01X7080Y1618D01*
G01X7094Y1590D01*
G01X7108Y1577D01*
G01X7149Y1563D01*
G01X7271Y1563D01*
G01X7176Y1563D02*
G01X7080Y1413D01*
G01X6977Y1631D02*
G01X6977Y1645D01*
G01X6963Y1672D01*
G01X6950Y1686D01*
G01X6922Y1700D01*
G01X6868Y1700D01*
G01X6840Y1686D01*
G01X6827Y1672D01*
G01X6813Y1645D01*
G01X6813Y1618D01*
G01X6827Y1590D01*
G01X6854Y1550D01*
G01X6990Y1413D01*
G01X6800Y1413D01*
G54D21*
G01X4600Y3244D02*
G01X4600Y2815D01*
G01X4600Y3244D02*
G01X4415Y3244D01*
G01X4355Y3225D01*
G01X4334Y3205D01*
G01X4313Y3163D01*
G01X4313Y3101D01*
G01X4334Y3061D01*
G01X4355Y3040D01*
G01X4415Y3019D01*
G01X4600Y3019D01*
G01X4178Y3163D02*
G01X4138Y3184D01*
G01X4076Y3244D01*
G01X4076Y2815D01*
G54D20*
G01X6083Y886D02*
G01X6083Y600D01*
G01X6179Y886D02*
G01X5988Y886D01*
G01X5898Y886D02*
G01X5898Y600D01*
G01X5898Y736D02*
G01X5857Y777D01*
G01X5830Y790D01*
G01X5789Y790D01*
G01X5761Y777D01*
G01X5748Y736D01*
G01X5748Y600D01*
G01X5658Y886D02*
G01X5644Y872D01*
G01X5630Y886D01*
G01X5644Y900D01*
G01X5658Y886D01*
G01X5644Y790D02*
G01X5644Y600D01*
G01X5390Y750D02*
G01X5404Y777D01*
G01X5445Y790D01*
G01X5486Y790D01*
G01X5527Y777D01*
G01X5540Y750D01*
G01X5527Y722D01*
G01X5500Y709D01*
G01X5431Y695D01*
G01X5404Y681D01*
G01X5390Y654D01*
G01X5390Y640D01*
G01X5404Y613D01*
G01X5445Y600D01*
G01X5486Y600D01*
G01X5527Y613D01*
G01X5540Y640D01*
G01X4900Y845D02*
G01X4927Y872D01*
G01X4968Y886D01*
G01X5022Y886D01*
G01X5063Y872D01*
G01X5090Y845D01*
G01X5090Y818D01*
G01X5077Y790D01*
G01X5063Y777D01*
G01X5036Y763D01*
G01X4954Y736D01*
G01X4927Y722D01*
G01X4913Y709D01*
G01X4900Y681D01*
G01X4900Y640D01*
G01X4927Y613D01*
G01X4968Y600D01*
G01X5022Y600D01*
G01X5063Y613D01*
G01X5090Y640D01*
G01X4810Y886D02*
G01X4796Y872D01*
G01X4782Y886D01*
G01X4796Y900D01*
G01X4810Y886D01*
G01X4796Y790D02*
G01X4796Y600D01*
G01X4529Y886D02*
G01X4529Y600D01*
G01X4529Y750D02*
G01X4556Y777D01*
G01X4583Y790D01*
G01X4624Y790D01*
G01X4651Y777D01*
G01X4679Y750D01*
G01X4692Y709D01*
G01X4692Y681D01*
G01X4679Y640D01*
G01X4651Y613D01*
G01X4624Y600D01*
G01X4583Y600D01*
G01X4556Y613D01*
G01X4529Y640D01*
G01X4439Y709D02*
G01X4275Y709D01*
G01X4275Y736D01*
G01X4289Y763D01*
G01X4302Y777D01*
G01X4330Y790D01*
G01X4370Y790D01*
G01X4398Y777D01*
G01X4425Y750D01*
G01X4439Y709D01*
G01X4439Y681D01*
G01X4425Y640D01*
G01X4398Y613D01*
G01X4370Y600D01*
G01X4330Y600D01*
G01X4302Y613D01*
G01X4275Y640D01*
G01X3975Y886D02*
G01X3975Y600D01*
G01X3975Y886D02*
G01X3880Y886D01*
G01X3839Y872D01*
G01X3811Y845D01*
G01X3798Y818D01*
G01X3784Y777D01*
G01X3784Y709D01*
G01X3798Y668D01*
G01X3811Y640D01*
G01X3839Y613D01*
G01X3880Y600D01*
G01X3975Y600D01*
G01X3626Y790D02*
G01X3653Y777D01*
G01X3680Y750D01*
G01X3694Y709D01*
G01X3694Y681D01*
G01X3680Y640D01*
G01X3653Y613D01*
G01X3626Y600D01*
G01X3585Y600D01*
G01X3558Y613D01*
G01X3530Y640D01*
G01X3517Y681D01*
G01X3517Y709D01*
G01X3530Y750D01*
G01X3558Y777D01*
G01X3585Y790D01*
G01X3626Y790D01*
G01X3427Y790D02*
G01X3372Y600D01*
G01X3318Y790D02*
G01X3372Y600D01*
G01X3318Y790D02*
G01X3263Y600D01*
G01X3209Y790D02*
G01X3263Y600D01*
G01X3119Y790D02*
G01X3119Y600D01*
G01X3119Y736D02*
G01X3078Y777D01*
G01X3050Y790D01*
G01X3010Y790D01*
G01X2982Y777D01*
G01X2969Y736D01*
G01X2969Y600D01*
G01X2865Y886D02*
G01X2865Y695D01*
G01X2865Y627D02*
G01X2879Y613D01*
G01X2865Y600D01*
G01X2851Y613D01*
G01X2865Y627D01*
G01X2748Y886D02*
G01X2748Y695D01*
G01X2748Y627D02*
G01X2761Y613D01*
G01X2748Y600D01*
G01X2734Y613D01*
G01X2748Y627D01*
G01X2630Y886D02*
G01X2630Y695D01*
G01X2630Y627D02*
G01X2644Y613D01*
G01X2630Y600D01*
G01X2617Y613D01*
G01X2630Y627D01*
G01X2513Y886D02*
G01X2513Y695D01*
G01X2513Y627D02*
G01X2527Y613D01*
G01X2513Y600D01*
G01X2500Y613D01*
G01X2513Y627D01*
M00*
M02*
